<svg xmlns="http://www.w3.org/2000/svg" xmlns:xlink="http://www.w3.org/1999/xlink" width="500" zoomAndPan="magnify" viewBox="0 0 375 374.999991" height="500" preserveAspectRatio="xMidYMid meet" version="1.0"><defs><g/><clipPath id="ee75a2b0de"><path d="M 66 33.136719 L 309.828125 33.136719 L 309.828125 342 L 66 342 Z M 66 33.136719 " clip-rule="nonzero"/></clipPath></defs><g clip-path="url(#ee75a2b0de)"><path fill="#171710" d="M 145.753906 333.703125 C 121.519531 330.378906 95.140625 324.585938 80.59375 305.984375 C 72.972656 296.21875 69.609375 284.023438 67.910156 271.988281 C 65.152344 252.578125 66.246094 232.882812 67.300781 213.308594 C 70.015625 163.710938 72.730469 114.070312 78.648438 64.675781 C 79.902344 54.21875 82.539062 42.101562 92.585938 37.5625 C 96.558594 35.78125 101.136719 35.539062 105.554688 35.375 C 138.539062 34.039062 171.523438 33.390625 204.550781 33.472656 C 224.648438 33.550781 245.355469 33.957031 263.875 41.292969 C 305.855469 57.90625 304.480469 96.96875 305.453125 133.277344 C 306.667969 178.421875 307.921875 223.601562 309.140625 268.746094 C 309.707031 288.359375 309.828125 309.347656 298.359375 325.71875 C 294.347656 331.515625 288.757812 336.578125 281.867188 339.011719 C 276.234375 341.039062 270.035156 341.160156 263.996094 341.238281 C 224.488281 341.605469 184.898438 339.09375 145.753906 333.703125 Z M 145.753906 333.703125 " fill-opacity="1" fill-rule="nonzero"/></g><g fill="#f3f5f9" fill-opacity="1"><g transform="translate(112.569893, 166.620631)"><g><path d="M 6.132812 -4.800781 C 23.199219 11.332031 26.128906 -17.730469 25.996094 -27.597656 C 36.664062 -24.128906 43.863281 -29.0625 45.59375 -39.863281 C 47.460938 -51.328125 40.261719 -52.792969 30.664062 -53.59375 C 25.996094 -53.859375 21.464844 -56.394531 25.195312 -61.726562 C 27.597656 -65.191406 34.53125 -63.859375 38.929688 -63.59375 C 47.328125 -62.792969 66.125 -63.460938 61.328125 -77.589844 C 56.792969 -90.921875 31.996094 -88.65625 21.332031 -89.324219 C 0.667969 -90.390625 3.867188 -71.058594 3.332031 -55.726562 L 2.53125 -27.195312 C 2.265625 -19.863281 0.132812 -10.398438 6.132812 -4.800781 Z M 6.132812 -4.800781 "/></g></g></g><g fill="#f3f5f9" fill-opacity="1"><g transform="translate(202.152215, 166.620631)"><g><path d="M 51.59375 -2.132812 C 60.261719 -6.933594 60.527344 -20.398438 52.394531 -25.863281 C 46.527344 -29.730469 40.394531 -28.398438 33.863281 -29.597656 C 28.929688 -30.53125 29.863281 -28.261719 29.0625 -33.863281 C 28.664062 -36.796875 29.464844 -40.261719 29.597656 -43.195312 C 29.996094 -55.0625 31.996094 -69.726562 28.128906 -81.324219 C 25.0625 -90.789062 15.199219 -94.257812 8.265625 -86.125 C 1.734375 -78.390625 2.265625 -64.925781 2.265625 -55.59375 C 2.132812 -44.527344 1.601562 -32.53125 2.667969 -21.464844 C 3.867188 -9.199219 11.730469 -4.132812 23.332031 -2.265625 C 31.328125 -0.933594 44.128906 2 51.59375 -2.132812 Z M 51.59375 -2.132812 "/></g></g></g><g fill="#f3f5f9" fill-opacity="1"><g transform="translate(100.428593, 276.996091)"><g><path d="M 26.796875 -3.066406 C 35.328125 4.398438 42.796875 -3.199219 47.726562 -10.398438 C 55.195312 -20.929688 85.324219 -60.394531 67.324219 -71.992188 C 50.929688 -82.523438 39.328125 -37.863281 35.597656 -28.796875 C 32.929688 -36.394531 22.132812 -79.589844 7.734375 -73.457031 C -7.597656 -66.925781 12.265625 -32.128906 16 -24.128906 C 19.066406 -17.332031 21.0625 -8.265625 26.796875 -3.066406 Z M 26.796875 -3.066406 "/></g></g></g><g fill="#f3f5f9" fill-opacity="1"><g transform="translate(202.807839, 276.996091)"><g><path d="M 29.0625 -0.265625 C 40.394531 -1.464844 52.527344 -5.199219 59.460938 -14.796875 C 66.792969 -25.0625 66.925781 -42.527344 57.460938 -51.59375 C 65.460938 -58.660156 72.792969 -71.324219 68.390625 -82.257812 C 63.191406 -95.457031 46.527344 -95.589844 34.664062 -95.191406 C 25.730469 -95.054688 10.265625 -97.054688 4.800781 -88.257812 C 0.398438 -80.925781 2.398438 -69.859375 2.667969 -61.726562 C 3.066406 -46.394531 1.199219 -28.929688 4.800781 -14 C 7.597656 -1.601562 17.597656 0.933594 29.0625 -0.265625 Z M 23.332031 -61.191406 C 22.664062 -61.726562 23.0625 -69.59375 23.332031 -70.125 C 25.597656 -75.324219 46.261719 -72.390625 42.394531 -65.859375 C 40.261719 -62.261719 35.0625 -61.726562 31.328125 -61.328125 C 30.53125 -61.191406 24.128906 -60.527344 23.332031 -61.191406 Z M 22.53125 -20.132812 C 22.664062 -23.863281 21.0625 -32.53125 22.664062 -35.460938 C 24.128906 -38.128906 26.53125 -38.261719 30.53125 -38.394531 C 35.730469 -38.527344 43.328125 -37.195312 41.59375 -30.128906 C 39.730469 -22.53125 28.929688 -20.796875 22.53125 -20.132812 Z M 22.53125 -20.132812 "/></g></g></g></svg>