<svg xmlns="http://www.w3.org/2000/svg" xmlns:xlink="http://www.w3.org/1999/xlink" width="500" zoomAndPan="magnify" viewBox="0 0 375 374.999991" height="500" preserveAspectRatio="xMidYMid meet" version="1.0"><path fill="#ffa500" d="M 187.472656 -0.109375 C 83.945312 -0.109375 0.0273438 83.8125 0.0273438 187.339844 C 0.0273438 290.859375 83.949219 374.785156 187.472656 374.785156 C 290.992188 374.785156 374.917969 290.855469 374.917969 187.339844 C 374.917969 83.8125 290.992188 -0.109375 187.472656 -0.109375 Z M 89.171875 201.59375 L 89.171875 98.25 C 89.171875 89.238281 96.480469 81.933594 105.488281 81.933594 L 269.449219 81.933594 C 278.460938 81.933594 285.769531 89.238281 285.769531 98.25 L 285.769531 201.597656 C 285.769531 205.058594 284.671875 208.25 282.839844 210.886719 L 305.964844 244.230469 L 68.984375 244.230469 L 92.101562 210.894531 C 90.265625 208.253906 89.171875 205.058594 89.171875 201.59375 Z M 305.976562 277.148438 L 68.96875 277.148438 L 68.96875 257.699219 L 305.976562 257.699219 Z M 305.976562 277.148438 " fill-opacity="1" fill-rule="nonzero"/><path fill="#ffa500" d="M 112.492188 105.238281 L 262.457031 105.238281 L 262.457031 194.597656 L 112.492188 194.597656 Z M 112.492188 105.238281 " fill-opacity="1" fill-rule="nonzero"/></svg>